<mxfile host="65bd71144e">
    <diagram id="vs5biPwbFEv8QPM_xo1k" name="Page-1">
        <mxGraphModel dx="914" dy="954" grid="1" gridSize="10" guides="1" tooltips="1" connect="1" arrows="1" fold="1" page="1" pageScale="1" pageWidth="1654" pageHeight="1169" math="0" shadow="0">
            <root>
                <mxCell id="0"/>
                <mxCell id="1" parent="0"/>
                <mxCell id="47" style="edgeStyle=none;html=1;exitX=1;exitY=0.5;exitDx=0;exitDy=0;" edge="1" parent="1" source="2">
                    <mxGeometry relative="1" as="geometry">
                        <mxPoint x="510" y="300.28571428571445" as="targetPoint"/>
                    </mxGeometry>
                </mxCell>
                <mxCell id="2" value="2&lt;span style=&quot;white-space: pre;&quot;&gt;&#9;&lt;/span&gt;300" style="rounded=0;whiteSpace=wrap;html=1;" vertex="1" parent="1">
                    <mxGeometry x="200" y="270" width="120" height="60" as="geometry"/>
                </mxCell>
                <mxCell id="22" value="" style="edgeStyle=none;html=1;" edge="1" parent="1" source="3" target="2">
                    <mxGeometry relative="1" as="geometry"/>
                </mxCell>
                <mxCell id="3" value="1&lt;span style=&quot;white-space: pre;&quot;&gt;&#9;&lt;/span&gt;100" style="rounded=0;whiteSpace=wrap;html=1;" vertex="1" parent="1">
                    <mxGeometry x="40" y="270" width="120" height="60" as="geometry"/>
                </mxCell>
                <mxCell id="24" value="" style="edgeStyle=none;html=1;" edge="1" parent="1" source="4" target="5">
                    <mxGeometry relative="1" as="geometry"/>
                </mxCell>
                <mxCell id="4" value="3&lt;span style=&quot;white-space: pre;&quot;&gt;&#9;&lt;/span&gt;300" style="rounded=0;whiteSpace=wrap;html=1;" vertex="1" parent="1">
                    <mxGeometry x="350" y="350" width="120" height="60" as="geometry"/>
                </mxCell>
                <mxCell id="25" value="" style="edgeStyle=none;html=1;" edge="1" parent="1" source="5" target="6">
                    <mxGeometry relative="1" as="geometry"/>
                </mxCell>
                <mxCell id="5" value="4 400" style="rounded=0;whiteSpace=wrap;html=1;glass=0;" vertex="1" parent="1">
                    <mxGeometry x="510" y="270" width="120" height="60" as="geometry"/>
                </mxCell>
                <mxCell id="6" value="5&lt;span style=&quot;white-space: pre;&quot;&gt;&#9;&lt;/span&gt;NULL" style="rounded=0;whiteSpace=wrap;html=1;glass=0;" vertex="1" parent="1">
                    <mxGeometry x="680" y="270" width="120" height="60" as="geometry"/>
                </mxCell>
                <mxCell id="8" value="233" style="text;html=1;align=center;verticalAlign=middle;resizable=0;points=[];autosize=1;strokeColor=none;fillColor=none;" vertex="1" parent="1">
                    <mxGeometry x="80" y="345" width="40" height="30" as="geometry"/>
                </mxCell>
                <mxCell id="9" value="100" style="text;html=1;align=center;verticalAlign=middle;resizable=0;points=[];autosize=1;strokeColor=none;fillColor=none;" vertex="1" parent="1">
                    <mxGeometry x="230" y="345" width="40" height="30" as="geometry"/>
                </mxCell>
                <mxCell id="11" value="200" style="text;strokeColor=none;align=center;fillColor=none;html=1;verticalAlign=middle;whiteSpace=wrap;rounded=0;glass=0;" vertex="1" parent="1">
                    <mxGeometry x="380" y="480" width="60" height="30" as="geometry"/>
                </mxCell>
                <mxCell id="13" value="300" style="text;strokeColor=none;align=center;fillColor=none;html=1;verticalAlign=middle;whiteSpace=wrap;rounded=0;glass=0;" vertex="1" parent="1">
                    <mxGeometry x="540" y="345" width="60" height="30" as="geometry"/>
                </mxCell>
                <mxCell id="15" value="400" style="text;strokeColor=none;align=center;fillColor=none;html=1;verticalAlign=middle;whiteSpace=wrap;rounded=0;glass=0;" vertex="1" parent="1">
                    <mxGeometry x="710" y="345" width="60" height="30" as="geometry"/>
                </mxCell>
                <mxCell id="16" value="head" style="text;html=1;align=center;verticalAlign=middle;resizable=0;points=[];autosize=1;strokeColor=none;fillColor=none;" vertex="1" parent="1">
                    <mxGeometry x="70" y="210" width="50" height="30" as="geometry"/>
                </mxCell>
                <mxCell id="27" value="curr" style="text;strokeColor=none;align=center;fillColor=none;html=1;verticalAlign=middle;whiteSpace=wrap;rounded=0;glass=0;" vertex="1" parent="1">
                    <mxGeometry x="370" y="420" width="60" height="30" as="geometry"/>
                </mxCell>
                <mxCell id="46" value="pre" style="text;strokeColor=none;align=center;fillColor=none;html=1;verticalAlign=middle;whiteSpace=wrap;rounded=0;glass=0;" vertex="1" parent="1">
                    <mxGeometry x="230" y="220" width="60" height="30" as="geometry"/>
                </mxCell>
            </root>
        </mxGraphModel>
    </diagram>
</mxfile>